<svg xmlns="http://www.w3.org/2000/svg" xmlns:xlink="http://www.w3.org/1999/xlink"
    preserveAspectRatio="xMidYMid meet" version="1.0" viewBox="0.0 0.0 47.5 47.5"
    zoomAndPan="magnify" style="fill: rgb(0, 0, 0);" original_string_length="1029"
    width="93.89910334213609px" height="93.89910334213609px">
    <g id="__id2_shzznf9xd">
        <path
            d="m42.1431938,0h-13.1527637c-2.9329082,0-5.3105,2.3775918-5.3105,5.3105v14.1796266c0,1.051424-.4176766,2.0597844-1.1611456,2.8032535l-.2254045.2254045c-.743469.743469-1.7518294,1.1611456-2.8032534,1.1611456H5.3105c-2.9329082,0-5.3105,2.3775918-5.3105,5.3105v13.1527637c0,2.9329082,2.3775918,5.3105,5.3105,5.3105h13.1527637c2.9329082,0,5.3105-2.3775918,5.3105-5.3105v-14.1796266c0-1.051424.4176766-2.0597844,1.1611456-2.8032534l.2254045-.2254045c.743469-.743469,1.7518294-1.1611456,2.8032534-1.1611456h14.1796266c2.9329082,0,5.3105-2.3775918,5.3105-5.3105V5.3105c0-2.9329082-2.3775918-5.3105-5.3105-5.3105Z"
            style="fill: rgb(211, 211, 211);" />
    </g>
</svg>