<svg xmlns="http://www.w3.org/2000/svg" xmlns:xlink="http://www.w3.org/1999/xlink"
    preserveAspectRatio="xMidYMid meet" version="1.0" viewBox="0.0 0.0 71.6 71.7"
    zoomAndPan="magnify" style="fill: rgb(0, 0, 0);" original_string_length="1965"
    width="142.63542268212862px" height="142.63542268212862px">
    <g id="__id1_shzznf9xd">
        <path
            d="m47.7943883,29.2076817v-.9388322c0-1.1594003.4605837-2.271316,1.2802994-3.0911939v-.0001621c.8200399-.8197158,1.9317936-1.2802994,3.091518-1.2802994h14.1205683c2.9330202,0,5.3104876-2.3776295,5.3104876-5.3104876V5.3104876c0-2.9330202-2.3774674-5.3104876-5.3104876-5.3104876h-13.276219c-2.9330202,0-5.3104876,2.3774674-5.3104876,5.3104876v14.1205683c0,1.1595623-.4605837,2.2714781-1.2806236,3.0911939v.0001621c-.8197158.8198778-1.9317936,1.2804615-3.0908697,1.2804615h-14.1208925c-2.2124871,0-4.1057096,1.3543623-4.904033,3.2780527-.3137544.6775863-.5007753,1.425184-.5007753,2.2210764v14.1205683c0,1.1595623-.4605837,2.2714781-1.2806236,3.0911939v.0001621c-.8197158.8198778-1.9317936,1.2804615-3.0908697,1.2804615H5.3104876c-2.932696,0-5.3104876,2.3774674-5.3104876,5.3104876v13.276219c0,2.9328581,2.3777916,5.3104876,5.3104876,5.3104876h13.276219c2.932696,0,5.3104876-2.3776295,5.3104876-5.3104876v-14.1207304c0-1.1594003.4605837-2.271316,1.2802994-3.0911939v-.0001621c.8200399-.8197158,1.9317936-1.2802994,3.091518-1.2802994h14.1205683c.320561,0,.6304259-.0400296.9351048-.0943208h.0038895c1.1590761,0,2.271154.4605837,3.0908697,1.2802994v.0001621c.8200399.8198778,1.2806236,1.9317936,1.2806236,3.0911939v14.1207304c0,2.9328581,2.3774674,5.3104876,5.3104876,5.3104876h13.276219c2.9330202,0,5.3104876-2.3776295,5.3104876-5.3104876v-13.276219c0-2.9330202-2.3774674-5.3104876-5.3104876-5.3104876h-14.1205683c-1.1597244,0-2.2714781-.4605837-3.091518-1.2804615v-.0001621c-.8197158-.8197158-1.2802994-1.9316315-1.2802994-3.0911939v-14.1205683Z"
            style="fill: rgb(229, 56, 59);" />
    </g>
</svg>