<svg xmlns="http://www.w3.org/2000/svg" xmlns:xlink="http://www.w3.org/1999/xlink"
    preserveAspectRatio="xMidYMid meet" version="1.0" viewBox="-0.0 -0.0 71.1 47.4"
    zoomAndPan="magnify" style="fill: rgb(0, 0, 0);" original_string_length="1217"
    width="149.64896105320366px" height="99.04040331521118px">
    <g id="__id0_shzznf9xd">
        <path
            d="m.0000043,5.3104983l-.0000043,13.1386425c-.000001,2.9329082,2.3775901,5.3105008,5.3104983,5.3105017l14.0088317.0000046c1.1527451.0000004,2.2582765.4579269,3.0733901,1.2730411l.0001023.0001023c.8151136.8151141,1.2730394,1.9206459,1.273039,3.073391l-.0000048,14.7061619c-.0000008,2.5477834,2.0653852,4.6131706,4.6131686,4.6131713l37.511384.0000095c2.932908.0000007,5.3105004-2.3775903,5.3105013-5.3104983l.0000043-13.1386425c.000001-2.9329083-2.3775903-5.310501-5.3104987-5.3105017l-37.6842423-.0000096c-1.1527451-.0000003-2.2582767-.4579268-3.0733903-1.273041l-.0001024-.0001024c-.8151136-.8151141-1.2730394-1.9206459-1.273039-3.073391l.0000046-14.0088317C23.7596477,2.3775979,21.3820567.0000053,18.4491485.0000043l-13.1386425-.0000043C2.3775979-.000001.0000053,2.3775901.0000043,5.3104983Z"
            style="fill: rgb(211, 211, 211);" />
    </g>
</svg>